<svg width="59" height="30" viewBox="0 0 59 30" fill="none" xmlns="http://www.w3.org/2000/svg">
<path d="M6.922 4.316C7.918 4.316 8.776 4.406 9.496 4.586C10.228 4.766 10.786 5.018 11.17 5.342C11.566 5.666 11.764 6.032 11.764 6.44C11.764 6.86 11.596 7.202 11.26 7.466C10.936 7.73 10.48 7.862 9.892 7.862C9.292 7.862 8.782 7.712 8.362 7.412C7.954 7.112 7.75 6.734 7.75 6.278C7.75 6.122 7.774 5.972 7.822 5.828C7.606 5.768 7.414 5.738 7.246 5.738C6.946 5.738 6.694 5.81 6.49 5.954C6.298 6.098 6.208 6.302 6.22 6.566C6.22 6.878 6.376 7.142 6.688 7.358C7 7.574 7.504 7.844 8.2 8.168C8.8 8.432 9.292 8.678 9.676 8.906C10.072 9.122 10.402 9.398 10.666 9.734C10.942 10.07 11.08 10.466 11.08 10.922C11.08 11.018 11.056 11.198 11.008 11.462C10.816 12.266 10.282 12.902 9.406 13.37C8.53 13.838 7.378 14.072 5.95 14.072C4.342 14.072 3.064 13.856 2.116 13.424C1.18 12.992 0.712 12.398 0.712 11.642C0.712 11.126 0.868 10.736 1.18 10.472C1.492 10.208 1.906 10.076 2.422 10.076C3.022 10.076 3.532 10.262 3.952 10.634C4.384 11.006 4.6 11.48 4.6 12.056C4.6 12.212 4.582 12.374 4.546 12.542C4.834 12.614 5.11 12.65 5.374 12.65C5.686 12.65 5.944 12.566 6.148 12.398C6.352 12.23 6.454 11.996 6.454 11.696C6.442 11.42 6.304 11.186 6.04 10.994C5.776 10.79 5.356 10.55 4.78 10.274C4.24 10.022 3.796 9.788 3.448 9.572C3.1 9.344 2.8 9.062 2.548 8.726C2.308 8.39 2.188 7.994 2.188 7.538C2.188 6.554 2.596 5.774 3.412 5.198C4.24 4.61 5.41 4.316 6.922 4.316ZM22.7039 11.516C22.6799 11.564 22.6679 11.636 22.6679 11.732C22.6679 11.816 22.6859 11.882 22.7219 11.93C22.7699 11.978 22.8299 12.002 22.9019 12.002C23.0459 12.002 23.1659 11.942 23.2619 11.822C23.3699 11.69 23.4419 11.624 23.4779 11.624C23.5379 11.624 23.5859 11.666 23.6219 11.75C23.6579 11.822 23.6759 11.912 23.6759 12.02C23.6879 12.368 23.5739 12.71 23.3339 13.046C23.0939 13.37 22.7399 13.64 22.2719 13.856C21.8159 14.06 21.2639 14.162 20.6159 14.162C19.8239 14.162 19.1939 13.982 18.7259 13.622C18.2579 13.25 18.0179 12.758 18.0059 12.146C18.0059 11.702 18.1139 11.204 18.3299 10.652L19.3199 8.06C19.3799 7.904 19.4099 7.778 19.4099 7.682C19.4099 7.526 19.3559 7.406 19.2479 7.322C19.1519 7.226 19.0319 7.178 18.8879 7.178C18.6599 7.178 18.4259 7.286 18.1859 7.502C17.9579 7.706 17.7719 8.042 17.6279 8.51V8.474L16.4939 12.128C16.4579 12.272 16.4399 12.398 16.4399 12.506C16.4399 12.662 16.4699 12.788 16.5299 12.884C16.5899 12.968 16.6739 13.052 16.7819 13.136C16.8659 13.22 16.9259 13.292 16.9619 13.352C16.9979 13.4 17.0039 13.466 16.9799 13.55C16.9199 13.706 16.7999 13.82 16.6199 13.892C16.4399 13.964 16.1639 14 15.7919 14H11.6879C11.3759 14 11.1479 13.952 11.0039 13.856C10.8599 13.748 10.8119 13.61 10.8599 13.442C10.9079 13.298 11.0339 13.172 11.2379 13.064C11.4179 12.968 11.5679 12.854 11.6879 12.722C11.8079 12.59 11.9099 12.38 11.9939 12.092L14.7299 3.11C14.7659 3.002 14.7839 2.912 14.7839 2.84C14.7839 2.708 14.7479 2.6 14.6759 2.516C14.6159 2.432 14.5319 2.348 14.4239 2.264C14.3039 2.168 14.2139 2.084 14.1539 2.012C14.1059 1.94 14.0999 1.844 14.1359 1.724C14.2079 1.448 14.5859 1.208 15.2699 1.004C15.9539 0.799999 16.6679 0.698 17.4119 0.698C18.1079 0.698 18.6179 0.83 18.9419 1.094C19.2779 1.358 19.4459 1.718 19.4459 2.174C19.4459 2.438 19.4039 2.696 19.3199 2.948L18.3479 6.116C18.8159 5.504 19.3079 5.078 19.8239 4.838C20.3519 4.598 20.9219 4.478 21.5339 4.478C22.2659 4.478 22.8539 4.7 23.2979 5.144C23.7539 5.588 23.9819 6.164 23.9819 6.872C23.9819 7.244 23.9219 7.61 23.8019 7.97L22.7039 11.516ZM30.8752 4.478C32.2552 4.478 33.3592 4.736 34.1872 5.252C35.0152 5.756 35.4292 6.53 35.4292 7.574C35.4292 7.97 35.3572 8.42 35.2132 8.924L34.4752 11.408C34.4632 11.456 34.4572 11.516 34.4572 11.588C34.4572 11.78 34.5352 11.876 34.6912 11.876C34.8352 11.876 34.9552 11.816 35.0512 11.696C35.1592 11.564 35.2312 11.498 35.2672 11.498C35.3272 11.498 35.3752 11.54 35.4112 11.624C35.4592 11.708 35.4832 11.804 35.4832 11.912C35.4952 12.236 35.3692 12.566 35.1052 12.902C34.8532 13.238 34.5112 13.514 34.0792 13.73C33.6472 13.946 33.1732 14.054 32.6572 14.054C32.0332 14.054 31.4992 13.94 31.0552 13.712C30.6112 13.484 30.3052 13.148 30.1372 12.704C29.7772 13.136 29.3512 13.472 28.8592 13.712C28.3672 13.94 27.8392 14.054 27.2752 14.054C26.6392 14.054 26.1052 13.934 25.6732 13.694C25.2412 13.442 24.9172 13.124 24.7012 12.74C24.4972 12.344 24.3952 11.93 24.3952 11.498C24.3952 11.306 24.4132 11.12 24.4492 10.94C24.6412 10.112 25.0552 9.488 25.6912 9.068C26.3392 8.648 27.1072 8.438 27.9952 8.438C28.9912 8.438 29.9692 8.594 30.9292 8.906L31.3792 7.718C31.5352 7.214 31.6132 6.824 31.6132 6.548C31.6012 6.26 31.5052 6.044 31.3252 5.9C31.1452 5.756 30.8692 5.684 30.4972 5.684C30.5692 5.876 30.6052 6.074 30.6052 6.278C30.6052 6.722 30.4372 7.106 30.1012 7.43C29.7652 7.754 29.2852 7.916 28.6612 7.916C28.0732 7.916 27.6112 7.79 27.2752 7.538C26.9512 7.274 26.7892 6.95 26.7892 6.566C26.7892 5.966 27.1252 5.468 27.7972 5.072C28.4692 4.676 29.4952 4.478 30.8752 4.478ZM29.8672 9.932C29.5312 9.932 29.2552 10.064 29.0392 10.328C28.8352 10.58 28.7332 10.856 28.7332 11.156C28.7332 11.348 28.7752 11.504 28.8592 11.624C28.9552 11.744 29.0872 11.804 29.2552 11.804C29.4112 11.804 29.5792 11.744 29.7592 11.624C29.9512 11.492 30.0892 11.3 30.1732 11.048L30.5512 9.986C30.3472 9.95 30.1192 9.932 29.8672 9.932ZM45.0646 4.478C45.7366 4.478 46.2706 4.682 46.6666 5.09C47.0746 5.498 47.2786 6.002 47.2786 6.602C47.2786 6.83 47.2546 7.04 47.2066 7.232C47.0866 7.724 46.8586 8.102 46.5226 8.366C46.1866 8.63 45.7846 8.762 45.3166 8.762C44.8606 8.762 44.5126 8.654 44.2726 8.438C44.0446 8.222 43.8406 7.934 43.6606 7.574C43.5646 7.37 43.4746 7.22 43.3906 7.124C43.3066 7.028 43.2106 6.98 43.1026 6.98C42.9826 6.98 42.8746 7.028 42.7786 7.124C42.6946 7.22 42.6166 7.388 42.5446 7.628L41.1586 12.128C41.1346 12.188 41.1226 12.278 41.1226 12.398C41.1226 12.554 41.1646 12.686 41.2486 12.794C41.3446 12.89 41.4706 12.986 41.6266 13.082C41.7706 13.178 41.8666 13.256 41.9146 13.316C41.9626 13.376 41.9806 13.454 41.9686 13.55C41.9446 13.706 41.8546 13.82 41.6986 13.892C41.5546 13.964 41.3026 14 40.9426 14H36.3346C36.0226 14 35.8006 13.952 35.6686 13.856C35.5246 13.748 35.4706 13.61 35.5066 13.442C35.5546 13.298 35.6806 13.172 35.8846 13.064C36.0646 12.968 36.2146 12.854 36.3346 12.722C36.4546 12.59 36.5566 12.38 36.6406 12.092L38.2426 6.89C38.2666 6.83 38.2786 6.746 38.2786 6.638C38.2786 6.506 38.2486 6.404 38.1886 6.332C38.1406 6.26 38.0566 6.17 37.9366 6.062C37.8166 5.966 37.7326 5.882 37.6846 5.81C37.6366 5.738 37.6306 5.642 37.6666 5.522C37.7386 5.246 38.1166 5.006 38.8006 4.802C39.4846 4.586 40.1986 4.478 40.9426 4.478C41.4346 4.478 41.8426 4.592 42.1666 4.82C42.4906 5.036 42.7006 5.348 42.7966 5.756C43.3726 4.904 44.1286 4.478 45.0646 4.478ZM55.8886 4.406C56.8126 4.406 57.5386 4.712 58.0666 5.324C58.5946 5.936 58.8586 6.77 58.8586 7.826C58.8586 8.39 58.7806 8.984 58.6246 9.608C58.2646 11.096 57.5926 12.23 56.6086 13.01C55.6246 13.778 54.4846 14.162 53.1886 14.162C52.3606 14.162 51.6406 13.988 51.0286 13.64L50.4526 15.566C50.4046 15.698 50.3806 15.824 50.3806 15.944C50.3806 16.076 50.4106 16.184 50.4706 16.268C50.5306 16.364 50.6086 16.454 50.7046 16.538C50.8006 16.634 50.8606 16.712 50.8846 16.772C50.9206 16.832 50.9266 16.904 50.9026 16.988C50.8546 17.144 50.7406 17.252 50.5606 17.312C50.3806 17.384 50.1046 17.42 49.7326 17.42H45.6106C45.2986 17.42 45.0766 17.366 44.9446 17.258C44.8006 17.162 44.7586 17.036 44.8186 16.88C44.8426 16.784 44.8846 16.706 44.9446 16.646C45.0046 16.586 45.0886 16.532 45.1966 16.484C45.3766 16.364 45.5206 16.238 45.6286 16.106C45.7366 15.986 45.8326 15.788 45.9166 15.512L48.5446 6.89C48.5806 6.782 48.5986 6.692 48.5986 6.62C48.5986 6.488 48.5686 6.386 48.5086 6.314C48.4486 6.23 48.3586 6.146 48.2386 6.062C48.1186 5.966 48.0346 5.882 47.9866 5.81C47.9386 5.738 47.9326 5.642 47.9686 5.522C48.0406 5.246 48.4186 5.006 49.1026 4.802C49.7866 4.586 50.5006 4.478 51.2446 4.478C51.7726 4.478 52.2046 4.61 52.5406 4.874C52.8886 5.138 53.0866 5.504 53.1346 5.972C53.9506 4.928 54.8686 4.406 55.8886 4.406ZM53.8006 9.752C54.0886 8.684 54.2326 7.946 54.2326 7.538C54.2326 7.286 54.1906 7.124 54.1066 7.052C54.0346 6.968 53.9266 6.926 53.7826 6.926C53.6746 6.926 53.5366 6.98 53.3686 7.088C53.2006 7.184 53.0326 7.352 52.8646 7.592L51.4426 12.308C51.5866 12.452 51.7606 12.524 51.9646 12.524C52.2886 12.524 52.5946 12.344 52.8826 11.984C53.1826 11.612 53.4886 10.868 53.8006 9.752ZM6.742 15.698C7.438 15.698 7.948 15.83 8.272 16.094C8.608 16.358 8.776 16.718 8.776 17.174C8.776 17.438 8.734 17.696 8.65 17.948L5.824 27.128C5.788 27.272 5.77 27.398 5.77 27.506C5.77 27.662 5.8 27.788 5.86 27.884C5.92 27.968 6.004 28.052 6.112 28.136C6.196 28.22 6.256 28.292 6.292 28.352C6.328 28.4 6.334 28.466 6.31 28.55C6.25 28.706 6.13 28.82 5.95 28.892C5.77 28.964 5.494 29 5.122 29H1.018C0.706 29 0.478 28.952 0.334 28.856C0.19 28.748 0.142 28.61 0.19 28.442C0.238 28.298 0.364 28.172 0.568 28.064C0.748 27.968 0.898 27.854 1.018 27.722C1.138 27.59 1.24 27.38 1.324 27.092L4.06 18.11C4.096 18.002 4.114 17.912 4.114 17.84C4.114 17.708 4.078 17.6 4.006 17.516C3.946 17.432 3.862 17.348 3.754 17.264C3.634 17.168 3.544 17.084 3.484 17.012C3.436 16.94 3.43 16.844 3.466 16.724C3.538 16.448 3.916 16.208 4.6 16.004C5.284 15.8 5.998 15.698 6.742 15.698ZM13.6938 19.388C15.2178 19.388 16.3218 19.634 17.0058 20.126C17.6898 20.606 18.0318 21.224 18.0318 21.98C18.0318 22.208 18.0078 22.418 17.9598 22.61C17.7798 23.402 17.2758 23.972 16.4478 24.32C15.6318 24.656 14.6658 24.824 13.5498 24.824C12.9858 24.824 12.4578 24.788 11.9658 24.716C11.9538 25.34 12.1218 25.778 12.4698 26.03C12.8178 26.282 13.3038 26.408 13.9278 26.408C14.2158 26.408 14.4918 26.378 14.7558 26.318C15.0198 26.246 15.3558 26.144 15.7638 26.012C16.0998 25.892 16.3278 25.832 16.4478 25.832C16.5798 25.832 16.6458 25.91 16.6458 26.066C16.6578 26.486 16.5018 26.93 16.1778 27.398C15.8538 27.854 15.3738 28.244 14.7378 28.568C14.1018 28.892 13.3338 29.054 12.4338 29.054C11.1018 29.054 10.0098 28.718 9.1578 28.046C8.3058 27.374 7.8798 26.396 7.8798 25.112C7.8798 24.752 7.9278 24.332 8.0238 23.852C8.3238 22.376 8.9778 21.266 9.9858 20.522C11.0058 19.766 12.2418 19.388 13.6938 19.388ZM12.0918 23.636C12.1398 23.648 12.2058 23.654 12.2898 23.654C12.7938 23.654 13.1778 23.42 13.4418 22.952C13.7058 22.484 13.8318 21.962 13.8198 21.386C13.8078 21.05 13.7118 20.882 13.5318 20.882C13.3998 20.882 13.2438 20.99 13.0638 21.206C12.8838 21.41 12.7038 21.722 12.5238 22.142C12.3558 22.562 12.2118 23.06 12.0918 23.636ZM24.0901 19.478C25.4701 19.478 26.5741 19.736 27.4021 20.252C28.2301 20.756 28.6441 21.53 28.6441 22.574C28.6441 22.97 28.5721 23.42 28.4281 23.924L27.6901 26.408C27.6781 26.456 27.6721 26.516 27.6721 26.588C27.6721 26.78 27.7501 26.876 27.9061 26.876C28.0501 26.876 28.1701 26.816 28.2661 26.696C28.3741 26.564 28.4461 26.498 28.4821 26.498C28.5421 26.498 28.5901 26.54 28.6261 26.624C28.6741 26.708 28.6981 26.804 28.6981 26.912C28.7101 27.236 28.5841 27.566 28.3201 27.902C28.0681 28.238 27.7261 28.514 27.2941 28.73C26.8621 28.946 26.3881 29.054 25.8721 29.054C25.2481 29.054 24.7141 28.94 24.2701 28.712C23.8261 28.484 23.5201 28.148 23.3521 27.704C22.9921 28.136 22.5661 28.472 22.0741 28.712C21.5821 28.94 21.0541 29.054 20.4901 29.054C19.8541 29.054 19.3201 28.934 18.8881 28.694C18.4561 28.442 18.1321 28.124 17.9161 27.74C17.7121 27.344 17.6101 26.93 17.6101 26.498C17.6101 26.306 17.6281 26.12 17.6641 25.94C17.8561 25.112 18.2701 24.488 18.9061 24.068C19.5541 23.648 20.3221 23.438 21.2101 23.438C22.2061 23.438 23.1841 23.594 24.1441 23.906L24.5941 22.718C24.7501 22.214 24.8281 21.824 24.8281 21.548C24.8161 21.26 24.7201 21.044 24.5401 20.9C24.3601 20.756 24.0841 20.684 23.7121 20.684C23.7841 20.876 23.8201 21.074 23.8201 21.278C23.8201 21.722 23.6521 22.106 23.3161 22.43C22.9801 22.754 22.5001 22.916 21.8761 22.916C21.2881 22.916 20.8261 22.79 20.4901 22.538C20.1661 22.274 20.0041 21.95 20.0041 21.566C20.0041 20.966 20.3401 20.468 21.0121 20.072C21.6841 19.676 22.7101 19.478 24.0901 19.478ZM23.0821 24.932C22.7461 24.932 22.4701 25.064 22.2541 25.328C22.0501 25.58 21.9481 25.856 21.9481 26.156C21.9481 26.348 21.9901 26.504 22.0741 26.624C22.1701 26.744 22.3021 26.804 22.4701 26.804C22.6261 26.804 22.7941 26.744 22.9741 26.624C23.1661 26.492 23.3041 26.3 23.3881 26.048L23.7661 24.986C23.5621 24.95 23.3341 24.932 23.0821 24.932ZM38.9585 26.408C38.9345 26.504 38.9225 26.57 38.9225 26.606C38.9225 26.69 38.9465 26.756 38.9945 26.804C39.0425 26.852 39.1025 26.876 39.1745 26.876C39.3185 26.876 39.4385 26.816 39.5345 26.696C39.6425 26.564 39.7145 26.498 39.7505 26.498C39.8105 26.498 39.8585 26.54 39.8945 26.624C39.9305 26.708 39.9485 26.804 39.9485 26.912C39.9605 27.236 39.8345 27.566 39.5705 27.902C39.3185 28.238 38.9765 28.514 38.5445 28.73C38.1125 28.946 37.6445 29.054 37.1405 29.054C36.5405 29.054 36.0185 28.94 35.5745 28.712C35.1305 28.484 34.8245 28.184 34.6565 27.812C34.3325 28.232 33.9605 28.544 33.5405 28.748C33.1205 28.952 32.6765 29.054 32.2085 29.054C31.6565 29.054 31.1405 28.916 30.6605 28.64C30.1925 28.364 29.8145 27.974 29.5265 27.47C29.2505 26.954 29.1125 26.372 29.1125 25.724C29.1125 24.632 29.3165 23.606 29.7245 22.646C30.1445 21.674 30.7265 20.894 31.4705 20.306C32.2145 19.706 33.0605 19.406 34.0085 19.406C34.5245 19.406 34.9625 19.466 35.3225 19.586C35.6945 19.706 36.0305 19.886 36.3305 20.126L36.9425 18.11C36.9785 18.002 36.9965 17.912 36.9965 17.84C36.9965 17.708 36.9605 17.6 36.8885 17.516C36.8285 17.432 36.7445 17.348 36.6365 17.264C36.5165 17.168 36.4265 17.084 36.3665 17.012C36.3185 16.94 36.3125 16.844 36.3485 16.724C36.4205 16.448 36.7985 16.208 37.4825 16.004C38.1665 15.8 38.8805 15.698 39.6245 15.698C40.3205 15.698 40.8305 15.83 41.1545 16.094C41.4905 16.358 41.6585 16.718 41.6585 17.174C41.6585 17.438 41.6165 17.696 41.5325 17.948L38.9585 26.408ZM35.9525 21.35C35.7605 21.182 35.5505 21.098 35.3225 21.098C34.9745 21.098 34.6325 21.356 34.2965 21.872C33.9605 22.388 33.6905 23.012 33.4865 23.744C33.2825 24.476 33.1865 25.136 33.1985 25.724C33.1985 26.384 33.4145 26.714 33.8465 26.714C34.0025 26.714 34.1345 26.654 34.2425 26.534C34.3505 26.402 34.4525 26.192 34.5485 25.904L35.9525 21.35ZM45.5411 19.316C46.5371 19.316 47.3951 19.406 48.1151 19.586C48.8471 19.766 49.4051 20.018 49.7891 20.342C50.1851 20.666 50.3831 21.032 50.3831 21.44C50.3831 21.86 50.2151 22.202 49.8791 22.466C49.5551 22.73 49.0991 22.862 48.5111 22.862C47.9111 22.862 47.4011 22.712 46.9811 22.412C46.5731 22.112 46.3691 21.734 46.3691 21.278C46.3691 21.122 46.3931 20.972 46.4411 20.828C46.2251 20.768 46.0331 20.738 45.8651 20.738C45.5651 20.738 45.3131 20.81 45.1091 20.954C44.9171 21.098 44.8271 21.302 44.8391 21.566C44.8391 21.878 44.9951 22.142 45.3071 22.358C45.6191 22.574 46.1231 22.844 46.8191 23.168C47.4191 23.432 47.9111 23.678 48.2951 23.906C48.6911 24.122 49.0211 24.398 49.2851 24.734C49.5611 25.07 49.6991 25.466 49.6991 25.922C49.6991 26.018 49.6751 26.198 49.6271 26.462C49.4351 27.266 48.9011 27.902 48.0251 28.37C47.1491 28.838 45.9971 29.072 44.5691 29.072C42.9611 29.072 41.6831 28.856 40.7351 28.424C39.7991 27.992 39.3311 27.398 39.3311 26.642C39.3311 26.126 39.4871 25.736 39.7991 25.472C40.1111 25.208 40.5251 25.076 41.0411 25.076C41.6411 25.076 42.1511 25.262 42.5711 25.634C43.0031 26.006 43.2191 26.48 43.2191 27.056C43.2191 27.212 43.2011 27.374 43.1651 27.542C43.4531 27.614 43.7291 27.65 43.9931 27.65C44.3051 27.65 44.5631 27.566 44.7671 27.398C44.9711 27.23 45.0731 26.996 45.0731 26.696C45.0611 26.42 44.9231 26.186 44.6591 25.994C44.3951 25.79 43.9751 25.55 43.3991 25.274C42.8591 25.022 42.4151 24.788 42.0671 24.572C41.7191 24.344 41.4191 24.062 41.1671 23.726C40.9271 23.39 40.8071 22.994 40.8071 22.538C40.8071 21.554 41.2151 20.774 42.0311 20.198C42.8591 19.61 44.0291 19.316 45.5411 19.316Z" fill="white"/>
</svg>
